<svg width="60" height="60" viewBox="0 0 60 60" fill="none" xmlns="http://www.w3.org/2000/svg">
<path d="M53.3174 19.687C53.196 19.5628 53.0709 19.4421 52.9424 19.3251C52.8149 19.2098 52.6949 19.0795 52.5674 18.9637C52.4399 18.848 52.3199 18.7176 52.1924 18.6023C52.0649 18.4865 51.9449 18.3562 51.8174 18.2404C51.6899 18.1247 51.5699 17.9948 51.4424 17.879C51.3149 17.7633 51.1949 17.6329 51.0674 17.5172C50.9399 17.4014 50.8199 17.2715 50.6924 17.1558C54.4124 20.6808 56.5439 25.477 56.6249 30.5062C56.6249 42.4898 44.0099 52.2389 28.4999 52.2389C19.8149 52.2389 12.0449 49.1798 6.87744 44.3845L7.25244 44.7464L7.62744 45.1078L8.00244 45.4697L8.37744 45.8311L8.75244 46.1929L9.12744 46.5544L9.50244 46.9158C14.6624 51.9136 22.6049 55.1315 31.4999 55.1315C47.0099 55.1315 59.6249 45.383 59.6249 33.4355C59.6249 28.3294 57.3449 23.4909 53.3174 19.687Z" fill="black"/>
<path d="M54.75 30.5062C54.75 41.5064 42.9975 50.4234 28.5 50.4234C14.0025 50.4234 2.25 41.5064 2.25 30.5062C2.25 23.6859 6.75 17.662 13.665 14.0892C20.58 10.5164 24.885 6.85687 28.5 6.85687C32.115 6.85687 35.205 9.84375 43.335 14.0897C50.25 17.6611 54.75 23.6859 54.75 30.5062Z" fill="#FBF0DF"/>
<path d="M54.7499 30.5062C54.7462 29.0916 54.5442 27.6845 54.1499 26.3259C52.1024 50.4089 21.6374 51.5662 9.65991 44.3634C15.044 48.3872 21.688 50.5247 28.4999 50.4234C42.9749 50.4234 54.7499 41.4919 54.7499 30.5062Z" fill="#F6DECE"/>
<path d="M18.3975 12.7659C21.75 10.8277 26.205 7.18968 30.585 7.18265C29.9097 6.97251 29.2072 6.86274 28.5 6.85687C26.685 6.85687 24.75 7.76156 22.3125 9.12094C21.465 9.59812 20.5875 10.1259 19.6575 10.6758C17.91 11.7173 15.9075 12.8958 13.6575 14.0747C6.5175 17.7994 2.25 23.9395 2.25 30.5062V31.3669C6.795 15.8827 15.0525 14.7042 18.3975 12.7659Z" fill="#FFFEFC"/>
<path d="M26.3401 8.68684C26.3498 10.3986 25.9775 12.091 25.2503 13.6406C24.5139 15.207 23.4449 16.5941 22.1176 17.7051C21.9076 17.8861 22.0726 18.2334 22.3426 18.1317C24.8701 17.1848 28.2826 14.3498 26.8426 8.62919C26.7826 8.30341 26.3401 8.39013 26.3401 8.68684ZM28.0426 8.68684C28.9567 10.122 29.5404 11.7423 29.7517 13.4306C29.9603 15.112 29.7892 16.8168 29.2501 18.4284C29.1601 18.6815 29.4826 18.8986 29.6626 18.689C31.3051 16.664 32.7376 12.6426 28.4476 8.30341C28.2301 8.11591 27.8926 8.40466 28.0426 8.65778V8.68684ZM30.1126 8.56403C31.5404 9.53532 32.7428 10.8022 33.6381 12.2789C34.5216 13.7374 35.0721 15.3731 35.2501 17.069C35.2426 17.13 35.2595 17.1909 35.2975 17.2401C35.3368 17.2893 35.393 17.3221 35.4552 17.3322C35.5174 17.3424 35.5811 17.3291 35.634 17.295C35.6601 17.2785 35.6826 17.2571 35.7004 17.2319C35.7182 17.2068 35.7308 17.1783 35.7376 17.1483C36.4276 14.6245 36.0376 10.3214 30.3601 8.08638C30.0601 7.97106 29.8651 8.36153 30.1126 8.53497V8.56403ZM16.2676 16.0851C17.9681 15.5978 19.5496 14.7644 20.9129 13.6373C22.2572 12.5258 23.3504 11.1418 24.1201 9.57653C24.2551 9.31591 24.6826 9.41716 24.6151 9.70638C23.3176 15.4922 18.9751 16.7001 16.2751 16.5408C15.9901 16.5483 15.9976 16.1648 16.2676 16.0851Z" fill="#CCBEA7"/>
<path d="M28.5 52.2389C12.99 52.2389 0.375 42.4898 0.375 30.5062C0.375 23.2739 5.01 16.5267 12.7725 12.4837C15.0225 11.3264 16.95 10.162 18.6675 9.14248C19.6125 8.57858 20.505 8.0503 21.3675 7.55858C24 6.05436 26.25 5.04889 28.5 5.04889C30.75 5.04889 32.715 5.91701 35.175 7.31998C35.925 7.73248 36.675 8.18061 37.4775 8.67233C39.345 9.78608 41.4525 11.0442 44.2275 12.4837C51.99 16.5267 56.625 23.2669 56.625 30.5062C56.625 42.4898 44.01 52.2389 28.5 52.2389ZM28.5 6.85733C26.685 6.85733 24.75 7.76108 22.3125 9.12092C21.465 9.59811 20.5875 10.1259 19.6575 10.6758C17.91 11.7173 15.9075 12.8958 13.6575 14.0747C6.5175 17.7994 2.25 23.9395 2.25 30.5062C2.25 41.4919 14.025 50.4309 28.5 50.4309C42.975 50.4309 54.75 41.4919 54.75 30.5062C54.75 23.939 50.4825 17.7994 43.335 14.0892C40.5 12.6426 38.2875 11.2833 36.495 10.2126C35.6775 9.72842 34.9275 9.27983 34.245 8.88233C31.9725 7.58014 30.315 6.85733 28.5 6.85733Z" fill="black"/>
<path d="M33.7876 35.7858C33.4506 37.1166 32.6837 38.3091 31.5976 39.1922C30.7717 39.9591 29.7187 40.4363 28.5976 40.5516C27.4428 40.455 26.353 39.9768 25.5001 39.1922C24.4253 38.3053 23.6692 37.1128 23.3401 35.7858C23.3297 35.7069 23.3377 35.6267 23.3635 35.5514C23.3898 35.4755 23.4335 35.4068 23.491 35.3508C23.5502 35.2942 23.6211 35.2514 23.6987 35.2253C23.7764 35.1992 23.8588 35.1905 23.9401 35.1999H33.1951C33.2759 35.1918 33.3575 35.2015 33.4341 35.2282C33.5108 35.2549 33.5807 35.298 33.639 35.3546C33.6961 35.4096 33.7393 35.4773 33.7652 35.5523C33.791 35.6273 33.7987 35.7073 33.7876 35.7858Z" fill="#B71422"/>
<path d="M25.5001 39.2499C26.3511 40.0351 27.437 40.5181 28.5901 40.6242C29.7405 40.5165 30.8236 40.0336 31.6726 39.2499C31.9397 39.0093 32.1903 38.7508 32.4226 38.4764C31.9565 37.968 31.3924 37.5591 30.7641 37.2745C30.1293 36.9872 29.444 36.8279 28.7476 36.8058C28.0027 36.8217 27.2721 37.0131 26.6152 37.3645C25.9666 37.7106 25.4115 38.2087 24.9976 38.8163C25.1701 38.9677 25.3201 39.1125 25.5001 39.2499Z" fill="#FF6164"/>
<path d="M25.6201 38.6784C25.9956 38.2117 26.4714 37.8357 27.0123 37.5783C27.559 37.3167 28.1566 37.1787 28.7626 37.1742C29.8781 37.203 30.9447 37.6377 31.7626 38.3967C31.9351 38.2158 32.1001 38.0278 32.2576 37.8398C31.3037 36.9633 30.0423 36.465 28.7251 36.4439C28.0229 36.4496 27.3301 36.6054 26.6931 36.9009C26.0629 37.1925 25.5045 37.6192 25.0576 38.1506C25.2351 38.3366 25.4226 38.5125 25.6201 38.6784Z" fill="black"/>
<path d="M28.5676 40.9856C27.3263 40.8836 26.1533 40.3752 25.2301 39.539C24.069 38.5922 23.252 37.3125 22.8976 35.887C22.8723 35.7605 22.8765 35.6292 22.9103 35.504C22.9439 35.378 23.0064 35.2616 23.0926 35.1637C23.1965 35.0433 23.3263 34.948 23.4723 34.8848C23.6196 34.8203 23.7794 34.7896 23.9401 34.7948H33.1951C33.3559 34.7915 33.5153 34.823 33.662 34.8867C33.8077 34.9499 33.9377 35.0445 34.0426 35.1637C34.1279 35.2631 34.1893 35.3794 34.2217 35.505C34.2545 35.6301 34.2573 35.7605 34.2301 35.887C33.8757 37.313 33.0582 38.5922 31.8976 39.539C30.9765 40.3737 29.8063 40.882 28.5676 40.9856ZM23.9401 35.6339C23.8201 35.6339 23.7901 35.6845 23.7826 35.699C24.0995 36.9356 24.8167 38.0423 25.8301 38.8594C26.5806 39.5678 27.5417 40.0121 28.5676 40.125C29.5911 40.0134 30.5512 39.5745 31.3051 38.8734C32.3153 38.0555 33.0297 36.9487 33.3451 35.7136C33.3286 35.6902 33.3059 35.6718 33.2795 35.6606C33.2529 35.6492 33.2238 35.645 33.1951 35.6484L23.9401 35.6339Z" fill="black"/>
<path d="M39.915 36.2344C42.3384 36.2344 44.3025 35.1202 44.3025 33.7463C44.3025 32.3724 42.3384 31.2586 39.915 31.2586C37.4915 31.2586 35.5275 32.3724 35.5275 33.7463C35.5275 35.1202 37.4915 36.2344 39.915 36.2344ZM17.2125 36.2344C19.6359 36.2344 21.6 35.1202 21.6 33.7463C21.6 32.3724 19.6359 31.2586 17.2125 31.2586C14.789 31.2586 12.825 32.3724 12.825 33.7463C12.825 35.1202 14.789 36.2344 17.2125 36.2344Z" fill="#FEBBD0"/>
<path d="M19.2749 32.7483C20.0891 32.7507 20.8867 32.5189 21.5727 32.0803C22.2473 31.6494 22.7783 31.0273 23.098 30.2934C23.4122 29.5685 23.4954 28.7644 23.3362 27.9905C23.1749 27.2113 22.7814 26.4992 22.2074 25.9481C21.6232 25.3862 20.8879 25.0067 20.0915 24.8559C19.2901 24.7009 18.461 24.7789 17.7027 25.0809C16.9534 25.3774 16.3078 25.8878 15.8465 26.5486C15.3943 27.1988 15.1513 27.9715 15.1499 28.7634C15.1499 29.8191 15.5844 30.8316 16.3579 31.5783C17.1313 32.3255 18.1804 32.7464 19.2749 32.7483ZM37.8524 32.7483C38.6676 32.755 39.4675 32.5267 40.1563 32.0906C40.8338 31.6624 41.3683 31.0419 41.6915 30.3084C42.0092 29.5839 42.0956 28.779 41.939 28.0036C41.78 27.2231 41.3881 26.5092 40.8149 25.9561C40.2317 25.392 39.4967 25.0101 38.6999 24.8574C37.8978 24.7006 37.0675 24.7775 36.3079 25.0791C35.5574 25.3749 34.9106 25.8852 34.4483 26.5463C33.995 27.1969 33.7513 27.9705 33.7499 28.7634C33.748 29.8158 34.1783 30.8259 34.9476 31.5731C35.7163 32.3199 36.7612 32.7427 37.8524 32.7483Z" fill="black"/>
<path d="M18.0001 29.0165C18.3061 29.0183 18.6062 28.9319 18.8645 28.7676C19.1209 28.6036 19.321 28.3706 19.4396 28.0973C19.5578 27.8248 19.5897 27.5227 19.531 27.2315C19.4709 26.9386 19.3235 26.6708 19.1082 26.4633C18.8887 26.2518 18.6125 26.1088 18.3132 26.0517C18.012 25.9934 17.7003 26.0225 17.4151 26.1356C17.1335 26.2471 16.8908 26.4387 16.7171 26.6868C16.5465 26.9309 16.4551 27.2216 16.4551 27.5193C16.4551 27.915 16.6177 28.2947 16.907 28.5754C17.2008 28.8578 17.5925 29.0162 18.0001 29.0165ZM36.5776 29.0165C36.8836 29.0183 37.1837 28.9319 37.442 28.7676C37.6984 28.6036 37.8985 28.3706 38.0171 28.0973C38.1353 27.8248 38.1672 27.5227 38.1085 27.2315C38.0484 26.9386 37.901 26.6708 37.6857 26.4633C37.4663 26.2518 37.19 26.1088 36.8907 26.0517C36.5895 25.9934 36.2778 26.0225 35.9926 26.1356C35.711 26.2471 35.4683 26.4387 35.2946 26.6868C35.124 26.9309 35.0326 27.2216 35.0326 27.5193C35.0326 27.9131 35.1929 28.29 35.4793 28.5703C35.7652 28.8506 36.1543 29.0109 36.5626 29.0165H36.5776Z" fill="white"/>
</svg>
