<svg width="60" height="60" viewBox="0 0 60 60" fill="none" xmlns="http://www.w3.org/2000/svg">
<path d="M10.0075 39.32C9.75914 38.9262 9.62568 38.4709 9.62214 38.0053C9.61861 37.5398 9.74514 37.0825 9.98749 36.685L28.685 6.18749C28.9208 5.80356 29.2565 5.49082 29.6561 5.28262C30.0557 5.07441 30.5043 4.97854 30.9541 5.00523C31.4039 5.03191 31.838 5.18015 32.2102 5.43414C32.5824 5.68814 32.8787 6.03837 33.0675 6.44749L50.1475 43.4975C50.2963 43.821 50.374 44.1727 50.3753 44.5289C50.3766 44.885 50.3015 45.2373 50.1551 45.5619C50.0086 45.8865 49.7943 46.1759 49.5264 46.4107C49.2586 46.6454 48.9435 46.8199 48.6025 46.9225L22.0325 54.8975C21.5126 55.0535 20.956 55.0353 20.4474 54.8458C19.9387 54.6562 19.506 54.3057 19.215 53.8475L10.0075 39.32ZM30.8425 15.105L24.2675 47.85C24.2358 48.0077 24.2455 48.1708 24.2955 48.3237C24.3455 48.4765 24.4342 48.6138 24.5529 48.7223C24.6717 48.8307 24.8165 48.9066 24.9732 48.9426C25.13 48.9785 25.2933 48.9733 25.4475 48.9275L43.805 43.4475C43.9315 43.4099 44.0485 43.346 44.1484 43.2598C44.2483 43.1737 44.3288 43.0673 44.3846 42.9477C44.4404 42.8282 44.4701 42.6981 44.4719 42.5662C44.4737 42.4343 44.4475 42.3035 44.395 42.1825L32.615 14.92C32.5374 14.7356 32.4025 14.5811 32.2304 14.4793C32.0582 14.3774 31.8579 14.3336 31.6589 14.3544C31.4599 14.3751 31.2729 14.4593 31.1255 14.5944C30.978 14.7296 30.8804 14.9086 30.8425 15.105Z" fill="white"/>
</svg>
