<svg width="60" height="60" viewBox="0 0 60 60" fill="none" xmlns="http://www.w3.org/2000/svg">
<path d="M5.05762 0V60H18.9401V38.915H26.4351L38.3151 60H54.9401L41.5101 36.855C44.9643 35.2258 47.8516 32.5997 49.8001 29.315C51.5718 26.29 52.4568 22.89 52.4551 19.115C52.4551 15.4583 51.5701 12.2 49.8001 9.34C48.0284 6.42833 45.5701 4.14333 42.4251 2.485C39.3418 0.828333 35.886 0 32.0576 0H5.05762ZM18.9401 12.175H29.4876C31.316 12.175 32.8585 12.4883 34.1151 13.115C35.4285 13.745 36.4285 14.66 37.1151 15.86C37.8018 17.0017 38.1451 18.3442 38.1451 19.8875C38.1451 22.2025 37.8301 22.8 37.2001 24C36.6285 25.2 35.7701 26.1417 34.6251 26.825C33.5401 27.4567 32.2551 27.7733 30.7701 27.775H18.9401V12.175Z" fill="white"/>
</svg>
