<svg width="60" height="60" viewBox="0 0 60 60" fill="none" xmlns="http://www.w3.org/2000/svg">
<g clip-path="url(#clip0_13_1128)">
<path d="M55.5474 29.46L29.4599 55.5475C29.0103 56.0445 28.7689 56.6954 28.7857 57.3654C28.8025 58.0354 29.0762 58.6734 29.5501 59.1473C30.024 59.6212 30.662 59.8949 31.332 59.9117C32.002 59.9285 32.6529 59.6871 33.1499 59.2375L59.2374 33.15C59.687 32.6529 59.9284 32.0021 59.9116 31.332C59.8948 30.662 59.6212 30.0241 59.1473 29.5501C58.6733 29.0762 58.0354 28.8026 57.3654 28.7858C56.6953 28.769 56.0445 29.0104 55.5474 29.46ZM50.3299 0.762481L0.76242 50.33C0.312813 50.827 0.0714399 51.4779 0.0882223 52.1479C0.105005 52.8179 0.378659 53.4559 0.852587 53.9298C1.32651 54.4037 1.96446 54.6774 2.63449 54.6942C3.30451 54.711 3.95536 54.4696 4.45242 54.02L54.0199 4.45248C54.4695 3.95542 54.7109 3.30457 54.6941 2.63455C54.6773 1.96452 54.4037 1.32658 53.9298 0.852648C53.4558 0.37872 52.8179 0.105066 52.1479 0.0882834C51.4778 0.0715009 50.827 0.312874 50.3299 0.762481Z" fill="white"/>
</g>
<defs>
<clipPath id="clip0_13_1128">
<rect width="60" height="60" fill="white"/>
</clipPath>
</defs>
</svg>
