<svg width="67" height="60" viewBox="0 0 67 60" fill="none" xmlns="http://www.w3.org/2000/svg">
<path d="M57.2757 25.875C56.2405 25.875 55.1005 26.6602 55.1005 28.5352H59.3694C59.3694 26.6602 58.2877 25.875 57.2757 25.875ZM43.6198 26.1797C42.666 26.1797 42.0727 26.5195 41.6424 27L41.6656 33.1875C42.0727 33.6211 42.6543 33.9727 43.6198 33.9727C45.1436 33.9727 46.1672 32.2969 46.1672 30.0586C46.1672 27.8789 45.1203 26.168 43.6198 26.1797ZM61.4167 3.75H5.58333C2.50087 3.75 0 6.26953 0 9.375V50.625C0 53.7305 2.50087 56.25 5.58333 56.25H61.4167C64.4991 56.25 67 53.7305 67 50.625V9.375C67 6.26953 64.4991 3.75 61.4167 3.75ZM14.2142 32.9414C14.2142 35.9414 11.853 37.6406 8.4099 37.6641C6.9908 37.6641 5.43212 37.3828 3.8967 36.7148V32.7422C5.29253 33.4922 7.04896 34.0664 8.42153 34.0664C9.34045 34.0664 10.0035 33.8203 10.0035 33.0469C10.0035 31.0547 3.72222 31.8047 3.72222 27.1992C3.72222 24.2461 5.95556 22.4883 9.30556 22.4883C10.6781 22.4883 12.0391 22.6992 13.4116 23.25V27.1641C12.1554 26.4844 10.5618 26.0977 9.30556 26.0977C8.43316 26.0977 7.89809 26.3555 7.89809 27C7.89809 28.875 14.2142 27.9844 14.2142 32.9414ZM22.217 26.3086H19.0764V32.2266C19.0764 34.6758 21.6936 33.9141 22.217 33.7031V37.0898C21.6703 37.3945 20.67 37.6406 19.3207 37.6406C16.8663 37.6406 15.0285 35.8242 15.0285 33.3633L15.0517 20.0156L19.088 19.1484V22.7578H22.217V26.3086ZM30.8247 26.5898C30.3012 26.4141 28.6495 26.168 27.6724 27.457V37.3477H23.5431V22.7578H27.1141L27.37 23.9883C28.3354 22.1953 30.2663 22.5586 30.813 22.7578H30.8247V26.5898ZM35.9543 37.3477H31.8017V22.7578H35.9543V37.3477ZM35.9543 20.6016L31.8017 21.4922V18.1055L35.9543 17.2148V20.6016ZM44.5736 37.6523C43.1313 37.6523 42.2472 37.0312 41.654 36.5977L41.6424 41.3086L37.513 42.1875V22.7578H41.1538L41.3632 23.7891C41.9332 23.2617 42.98 22.4883 44.5969 22.4883C47.4932 22.4883 50.2267 25.125 50.2267 29.9648C50.2267 35.25 47.5281 37.6406 44.5736 37.6523ZM63.2313 31.6172H55.1471C55.3332 33.5625 56.7523 34.1367 58.3575 34.1367C59.9976 34.1367 61.2887 33.7852 62.417 33.2109V36.5625C61.2887 37.1836 59.8115 37.6406 57.834 37.6406C53.8094 37.6406 50.9944 35.0977 50.9944 30.082C50.9944 25.8398 53.379 22.4766 57.3106 22.4766C61.2306 22.4766 63.2778 25.8398 63.2778 30.1055C63.2778 30.5156 63.2429 31.3828 63.2313 31.6172Z" fill="white"/>
</svg>
